<?xml version="1.0" standalone="no"?>
<!DOCTYPE svg PUBLIC "-//W3C//DTD SVG 20010904//EN"
 "http://www.w3.org/TR/2001/REC-SVG-20010904/DTD/svg10.dtd">
<svg version="1.0" xmlns="http://www.w3.org/2000/svg"
 width="500.000000pt" height="268.000000pt" viewBox="0 0 500.000000 268.000000"
 preserveAspectRatio="xMidYMid meet">
<metadata>
Created by potrace 1.10, written by Peter Selinger 2001-2011
</metadata>
<g transform="translate(0.000000,268.000000) scale(0.100000,-0.100000)"
fill="#e0c71f" stroke="none">
<path d="M853 2590 c-42 -25 -81 -81 -145 -211 -66 -134 -138 -336 -174 -489
-28 -117 -69 -399 -87 -594 l-12 -128 -61 -19 c-75 -23 -129 -58 -129 -84 0
-32 44 -29 116 7 l66 33 6 -150 c11 -252 36 -404 83 -497 39 -78 92 -91 142
-34 53 61 67 122 66 291 0 135 -3 158 -27 231 -31 92 -87 166 -148 193 l-37
17 126 90 c69 49 163 116 208 150 l82 61 4 -55 c7 -83 51 -105 118 -60 27 19
231 280 270 346 8 15 11 15 20 2 5 -8 10 -34 10 -57 0 -24 4 -43 8 -43 30 0
41 63 22 129 -11 41 9 82 59 119 l31 23 0 -31 c0 -18 -16 -104 -35 -193 -53
-249 -58 -291 -52 -401 13 -236 103 -305 236 -181 42 39 182 256 240 373 l22
42 32 -16 c17 -10 68 -40 112 -67 149 -94 269 -127 457 -127 129 0 232 14 507
69 108 22 223 44 256 50 114 22 321 41 433 41 174 0 276 -13 510 -67 15 -4 22
-1 22 9 0 17 -147 69 -265 93 -111 23 -318 30 -450 16 -60 -7 -267 -43 -460
-81 -192 -38 -384 -75 -425 -81 -103 -16 -298 -6 -375 19 -61 19 -207 89 -254
120 -14 10 -38 23 -53 30 -16 6 -28 17 -28 23 0 6 -7 9 -15 5 -8 -3 -15 -1
-15 4 0 6 -9 5 -20 -2 -11 -7 -20 -16 -20 -21 0 -4 -34 -67 -76 -140 -120
-208 -200 -307 -249 -307 -22 0 -41 50 -55 145 -13 91 0 230 45 460 30 158 32
216 7 238 -32 29 -59 20 -111 -34 l-49 -51 -33 18 c-82 42 -199 10 -269 -73
-38 -46 -86 -144 -95 -195 -7 -35 -19 -46 -164 -149 -86 -62 -185 -134 -219
-161 -35 -28 -66 -48 -68 -45 -2 2 4 80 14 173 l19 169 170 335 c171 338 222
461 243 592 17 111 -21 168 -87 128z m47 -62 c0 -44 -43 -204 -78 -293 -11
-28 -64 -141 -117 -250 -53 -110 -108 -227 -122 -260 -29 -67 -49 -95 -39 -55
3 14 18 84 32 155 57 288 184 607 287 723 29 32 37 28 37 -20z m396 -752 c14
-11 16 -19 9 -29 -5 -8 -59 -79 -119 -157 -118 -155 -173 -220 -187 -220 -16
0 -9 92 12 173 27 98 87 192 144 224 46 26 112 30 141 9z m-765 -661 c64 -34
118 -142 144 -292 30 -170 12 -305 -50 -387 -14 -18 -16 -19 -34 -2 -21 19
-64 147 -82 246 -11 62 -29 427 -21 443 5 10 9 9 43 -8z m134 -123 c-6 -7 -34
29 -34 43 0 6 9 -1 20 -14 11 -13 17 -26 14 -29z m40 -138 c8 -44 14 -97 14
-119 -1 -25 -6 -8 -14 46 -7 47 -16 104 -20 125 -4 21 -4 36 0 33 3 -4 13 -42
20 -85z"/>
<path d="M2730 1010 c-24 -24 -14 -54 26 -72 17 -8 24 -18 22 -32 -2 -17 -9
-21 -38 -19 -29 2 -32 1 -17 -8 25 -14 64 -3 72 20 8 26 -1 44 -35 63 -36 21
-32 53 6 45 27 -5 33 8 8 17 -22 8 -22 8 -44 -14z"/>
<path d="M3309 1009 c-25 -25 -21 -38 19 -64 45 -28 40 -61 -8 -58 -32 2 -33
1 -12 -9 32 -16 72 4 72 36 0 17 -10 30 -36 45 -40 24 -40 46 -1 46 30 -1 36
10 11 19 -22 8 -22 8 -45 -15z"/>
<path d="M3968 1019 c-29 -17 -22 -56 13 -74 22 -12 29 -22 27 -38 -2 -18 -9
-22 -32 -20 -22 2 -26 -1 -18 -9 20 -20 66 3 70 34 3 21 -3 30 -27 43 -40 20
-44 60 -6 53 28 -6 34 6 9 16 -19 7 -15 8 -36 -5z"/>
<path d="M1750 950 c0 -40 4 -70 10 -70 6 0 10 29 10 66 0 65 0 66 25 62 14
-3 25 -1 25 3 0 5 -16 9 -35 9 l-35 0 0 -70z"/>
<path d="M1940 1000 c-49 -49 -3 -139 65 -126 92 18 83 146 -10 146 -22 0 -43
-8 -55 -20z m92 -7 c10 -9 18 -28 18 -43 0 -55 -54 -86 -89 -51 -56 56 13 147
71 94z"/>
<path d="M2170 965 c0 -42 5 -60 20 -75 24 -24 38 -25 68 -4 19 13 22 23 20
77 -1 51 -2 54 -5 17 -6 -76 -11 -90 -36 -90 -35 0 -47 19 -47 77 0 29 -4 53
-10 53 -5 0 -10 -25 -10 -55z"/>
<path d="M2380 950 c0 -40 4 -70 10 -70 6 0 10 29 10 66 0 62 1 65 23 62 30
-4 37 -47 8 -55 -26 -7 -26 -12 4 -45 33 -38 51 -35 23 3 -21 28 -22 31 -5 40
39 22 12 69 -40 69 l-33 0 0 -70z"/>
<path d="M2900 950 l0 -70 38 1 c28 2 31 3 10 6 -25 4 -26 7 -27 65 0 58 1 60
25 55 13 -2 24 0 24 4 0 5 -16 9 -35 9 l-35 0 0 -70z"/>
<path d="M3128 1009 c-2 -6 6 -32 19 -58 12 -25 23 -52 23 -58 0 -7 7 -13 15
-13 11 0 7 15 -16 67 -34 77 -35 79 -41 62z"/>
<path d="M3500 1000 c-30 -30 -27 -83 7 -110 72 -56 165 42 103 108 -27 29
-83 29 -110 2z m92 -7 c32 -29 21 -88 -20 -104 -38 -14 -72 12 -72 56 0 58 51
85 92 48z"/>
<path d="M3730 1012 c0 -15 100 -132 112 -132 17 0 6 18 -52 80 -33 36 -60 59
-60 52z"/>
<path d="M3831 973 c0 -36 3 -43 9 -28 12 28 12 63 0 70 -6 4 -10 -12 -9 -42z"/>
<path d="M3092 935 c-25 -52 -26 -55 -12 -55 5 0 12 11 16 25 3 14 10 25 14
25 4 0 8 11 8 25 0 14 -1 25 -2 25 -1 0 -12 -20 -24 -45z"/>
<path d="M3731 923 c-1 -24 4 -43 9 -43 12 0 12 24 0 60 -7 21 -8 19 -9 -17z"/>
<path d="M2727 703 c-13 -13 -7 -38 13 -51 27 -16 27 -46 0 -39 -11 3 -23 1
-26 -4 -3 -5 9 -9 26 -9 43 0 49 24 15 60 -17 17 -23 30 -16 34 6 4 16 4 21 1
6 -3 10 -1 10 4 0 12 -33 15 -43 4z"/>
<path d="M2879 699 c21 -8 23 -14 19 -54 -3 -25 -2 -45 3 -45 5 0 9 22 9 49 0
43 3 50 23 54 12 2 0 5 -28 5 -41 1 -46 -1 -26 -9z"/>
<path d="M3020 703 c0 -5 9 -19 20 -33 11 -14 20 -36 21 -50 l1 -25 8 26 c4
14 15 38 25 53 10 14 14 30 10 34 -4 4 -10 2 -12 -4 -2 -6 -10 -20 -17 -30
-14 -18 -15 -18 -27 9 -11 25 -29 37 -29 20z"/>
<path d="M3200 655 l0 -55 38 1 c30 2 32 3 10 6 -26 4 -28 8 -28 54 0 27 -4
49 -10 49 -5 0 -10 -25 -10 -55z"/>
<path d="M3360 655 l0 -55 33 1 c23 1 26 3 10 6 -26 5 -33 43 -8 43 8 0 15 5
15 10 0 6 -7 10 -15 10 -24 0 -17 28 8 33 16 3 13 5 -10 6 l-33 1 0 -55z"/>
</g>
</svg>
