 <svg  version="1.0" xmlns="http://www.w3.org/2000/svg"  width="300.000000pt" height="300.000000pt" viewBox="0 0 300.000000 300.000000"  preserveAspectRatio="xMidYMid meet">  <g transform="translate(0.000000,300.000000) scale(0.100000,-0.100000)" fill="#9c31e3" stroke="none"> <path d="M2414 2799 c-35 -10 -69 -43 -60 -58 4 -6 24 -15 45 -21 21 -5 50 -19 65 -31 l26 -21 -25 -30 c-25 -30 -25 -38 3 -71 13 -14 13 -24 3 -56 -13 -44 -6 -68 33 -120 35 -47 35 -106 -1 -70 -6 6 -23 9 -39 7 -28 -3 -29 -5 -29 -60 0 -45 -4 -60 -20 -72 -11 -9 -25 -16 -31 -16 -24 0 -54 -47 -54 -86 -1 -51 -15 -74 -77 -122 -92 -74 -184 -122 -256 -137 -21 -5 -24 -9 46 81 64 85 85 191 52 270 -20 50 -79 121 -115 139 -37 19 -114 20 -130 0 -10 -12 -7 -13 17 -6 80 23 182 -63 218 -184 10 -33 9 -47 -7 -95 -31 -87 -73 -145 -149 -201 -38 -28 -69 -58 -69 -66 0 -10 5 -13 18 -8 9 4 67 24 128 44 115 38 228 105 307 179 34 33 37 40 37 93 l0 56 45 17 c70 27 96 84 60 132 -8 10 -15 23 -15 27 0 17 46 -6 71 -35 36 -43 52 -30 47 39 -3 35 -12 63 -26 81 -57 71 -58 72 -39 104 24 41 21 59 -10 85 -27 22 -28 23 -9 38 11 8 36 15 55 15 20 0 43 5 51 10 13 9 12 12 -4 25 -11 8 -30 15 -42 15 -11 0 -38 11 -58 25 -25 17 -51 25 -79 25 l-42 1 24 19 c53 45 171 14 236 -63 62 -73 80 -181 51 -318 -29 -137 -156 -333 -268 -412 -77 -55 -271 -157 -298 -157 -36 0 -21 -29 24 -49 53 -23 123 -85 183 -163 53 -69 89 -146 75 -160 -11 -11 -38 24 -73 97 -13 28 -49 75 -79 105 -112 111 -207 137 -380 106 -55 -11 -96 -14 -102 -8 -16 16 3 40 49 57 32 12 49 26 57 47 7 17 30 40 52 52 44 25 84 78 84 113 0 37 -27 81 -61 99 -27 14 -30 19 -25 47 5 23 1 36 -15 53 l-22 23 27 11 c15 5 36 10 47 10 10 0 19 5 19 11 0 13 -62 39 -92 39 -22 -1 -22 -1 -4 -15 17 -13 18 -18 7 -39 -10 -17 -10 -29 -2 -44 6 -11 11 -34 11 -51 0 -22 11 -41 40 -70 30 -30 40 -47 40 -71 0 -31 -5 -38 -95 -118 -11 -10 -29 -28 -40 -41 -11 -12 -36 -32 -55 -44 -31 -20 -35 -29 -37 -67 -1 -25 -5 -64 -9 -88 -7 -49 13 -82 51 -82 12 0 43 -9 68 -20 44 -20 48 -20 84 -4 21 9 53 19 72 23 48 9 61 33 35 68 -12 15 -40 42 -62 60 -48 36 -44 44 19 37 129 -14 233 -90 300 -218 17 -34 39 -69 47 -79 14 -16 14 -19 0 -33 -18 -18 -107 -22 -195 -10 -52 8 -52 8 -101 -38 -36 -34 -54 -44 -68 -39 -16 6 -15 3 5 -25 21 -31 65 -51 78 -38 4 4 -1 20 -11 36 -17 30 -17 30 8 39 13 6 29 18 34 27 9 16 15 16 50 6 49 -15 97 -15 124 -1 31 17 32 4 3 -45 -52 -89 -120 -127 -199 -112 -35 7 -83 44 -103 81 -7 11 -15 16 -20 12 -11 -11 27 -77 58 -99 47 -35 126 -41 192 -13 10 4 17 3 17 -3 0 -6 -14 -13 -30 -17 -18 -4 -43 -22 -62 -46 -19 -23 -40 -39 -52 -39 -31 0 -66 -28 -66 -53 0 -11 -12 -33 -26 -48 -22 -23 -24 -29 -13 -48 24 -38 112 -59 175 -42 53 14 106 60 142 123 l30 52 15 -36 c9 -20 25 -42 37 -48 22 -12 30 -8 72 33 12 11 26 15 42 11 13 -3 33 -1 44 5 18 9 25 5 52 -28 57 -72 137 -104 159 -63 7 14 5 27 -10 51 l-20 33 26 20 c33 26 32 50 -7 94 -26 30 -30 39 -20 52 7 10 17 27 23 39 18 34 -9 67 -73 88 -29 9 -64 23 -77 30 l-25 13 41 20 c52 27 116 100 131 150 24 79 8 165 -41 213 -32 32 -58 37 -77 14 -11 -13 -10 -22 3 -50 l16 -34 -44 -43 c-25 -24 -57 -53 -72 -64 -19 -15 -34 -42 -47 -83 -21 -67 -27 -74 -48 -66 -9 4 -13 17 -10 40 3 24 -4 49 -24 86 -32 59 -174 215 -205 224 -10 4 -19 13 -19 21 0 22 43 34 100 27 46 -5 54 -10 76 -44 26 -41 51 -59 83 -59 11 0 27 -10 36 -22 16 -23 16 -23 13 12 -3 34 -4 35 -53 40 -46 5 -50 7 -56 36 -10 52 -17 57 -70 51 -27 -3 -49 -4 -49 -1 0 9 84 44 105 44 90 0 151 -63 143 -151 -4 -37 -2 -47 6 -39 6 6 11 35 11 65 0 67 -23 101 -90 134 l-49 25 29 20 c133 96 261 277 301 431 20 73 14 250 -10 295 -56 107 -173 173 -262 149z m237 -1070 c80 -80 55 -234 -47 -299 -57 -36 -134 -43 -134 -12 0 10 6 27 14 38 8 11 16 33 18 48 1 16 10 32 18 36 46 21 56 30 70 56 8 16 16 31 17 33 2 2 12 -4 23 -14 14 -13 24 -15 31 -8 14 14 -8 87 -33 109 -10 10 -18 21 -18 26 0 14 19 9 41 -13z m-717 -39 c29 -11 106 -78 106 -92 0 -7 -18 -9 -45 -6 -35 4 -48 1 -61 -13 -22 -25 -49 -24 -90 2 -21 12 -46 19 -66 17 -28 -3 -33 0 -36 21 -6 39 7 69 31 74 43 8 136 7 161 -3z m494 -326 c27 -19 55 -71 48 -89 -3 -8 -22 -15 -43 -17 -30 -2 -41 -9 -51 -30 -17 -36 -36 -27 -62 28 l-22 44 22 34 c30 49 67 59 108 30z m127 -50 c14 -9 51 -24 82 -34 68 -21 76 -39 34 -70 -43 -30 -39 -53 15 -90 25 -18 43 -37 41 -43 -2 -7 -25 -13 -50 -15 -26 -2 -47 -7 -47 -11 0 -5 21 -32 46 -60 51 -57 41 -66 -24 -22 -51 33 -78 74 -103 151 -18 58 -36 210 -25 210 4 0 18 -7 31 -16z m-277 -173 c-7 -94 -51 -171 -120 -207 -31 -16 -115 -19 -152 -4 -31 11 -37 45 -7 35 24 -7 71 4 71 17 0 6 -11 19 -25 30 -36 28 -31 36 20 30 53 -6 75 8 75 48 0 24 5 29 38 35 49 9 71 30 79 78 10 64 26 16 21 -62z m210 44 c-2 -2 -22 -1 -46 2 -34 5 -40 8 -31 19 6 8 26 18 43 22 28 8 31 6 34 -16 2 -13 2 -25 0 -27z m-147 -5 c19 -11 19 -12 2 -40 -21 -36 -33 -30 -33 16 0 37 2 39 31 24z m135 -38 c18 -11 34 -48 34 -76 0 -30 -5 -32 -26 -11 -9 8 -23 15 -33 15 -21 0 -61 -36 -61 -55 0 -21 -17 -18 -30 4 -15 30 -12 62 10 99 17 27 26 32 57 32 21 0 43 -4 49 -8z"/> <path d="M1155 2790 c-49 -8 -104 -35 -112 -57 -11 -28 63 -82 116 -85 25 -2 46 -9 49 -15 3 -10 -71 -13 -345 -13 -343 0 -409 -4 -381 -21 7 -5 321 -9 697 -9 l685 0 44 -47 c25 -27 74 -84 109 -128 63 -78 83 -96 83 -77 0 17 -98 147 -158 208 -68 71 -65 70 -261 73 -75 1 -137 4 -139 6 -2 2 7 13 20 24 20 19 30 21 76 15 44 -5 60 -3 98 17 36 20 44 29 42 48 -7 60 -121 84 -249 52 -80 -20 -114 -41 -141 -87 l-21 -35 -56 59 c-61 66 -95 81 -156 72z m89 -39 c30 -20 96 -97 96 -112 0 -5 -17 -9 -38 -9 -28 0 -45 7 -63 26 -22 23 -29 25 -76 19 -49 -6 -53 -5 -53 14 0 17 -6 21 -31 21 -43 0 -33 19 21 40 60 24 109 24 144 1z m494 -1 c38 -23 42 -43 7 -38 -15 2 -29 -4 -38 -16 -12 -17 -18 -17 -69 -6 l-56 13 -43 -37 c-36 -30 -50 -36 -90 -36 -26 0 -50 4 -53 9 -9 14 23 70 47 83 90 48 238 62 295 28z"/> <path d="M2034 2751 c-36 -22 -64 -83 -64 -138 0 -45 33 -116 67 -143 42 -33 45 -23 7 27 -47 61 -57 89 -50 137 13 79 50 116 116 116 34 0 40 -15 10 -25 -10 -3 -31 -20 -45 -36 -36 -44 -35 -118 5 -209 17 -38 30 -76 30 -85 0 -26 46 -65 78 -65 34 0 52 16 52 47 0 15 8 27 23 32 35 14 46 33 44 78 -1 29 5 48 18 63 20 22 20 22 -5 42 -47 38 -133 10 -187 -60 l-33 -44 -16 38 c-25 59 -14 118 30 163 41 42 44 56 17 71 -29 15 -62 12 -97 -9z m281 -171 c19 -7 19 -8 -6 -18 -32 -13 -41 -34 -29 -68 16 -42 12 -53 -25 -60 -48 -9 -63 -29 -40 -54 24 -26 14 -34 -29 -26 -42 8 -56 30 -56 88 0 58 30 104 83 128 45 21 70 23 102 10z"/> <path d="M400 2749 c-39 -16 -90 -70 -111 -117 -36 -83 -21 -237 31 -314 l29 -43 -34 -6 c-72 -12 -99 -73 -48 -106 36 -24 123 -22 169 3 25 14 39 16 50 8 27 -16 18 -25 -51 -49 -119 -40 -195 -141 -195 -260 0 -140 117 -241 248 -214 48 10 59 23 42 54 -12 22 -11 27 8 48 35 37 28 64 -23 93 -41 23 -19 56 59 86 5 2 11 21 15 43 4 29 14 44 33 54 15 9 29 13 32 10 3 -3 6 -115 6 -250 1 -358 3 -329 -17 -329 -10 0 -31 -7 -47 -15 -40 -21 -52 -19 -78 15 -24 33 -39 37 -58 15 -18 -22 -42 -18 -65 11 -11 14 -29 26 -40 28 -13 2 -22 13 -25 31 l-5 29 -13 -28 c-24 -54 -8 -93 27 -62 21 19 39 21 38 4 -1 -34 5 -48 23 -58 28 -15 55 -5 69 26 13 30 27 24 36 -15 11 -51 28 -56 81 -27 57 32 66 32 62 4 -2 -16 -21 -29 -73 -52 -84 -36 -174 -42 -218 -13 -14 9 -33 17 -41 17 -28 0 -5 -29 41 -51 37 -18 56 -21 109 -16 36 4 85 15 111 27 108 48 95 11 -18 -47 -76 -40 -89 -43 -140 -39 -60 4 -122 31 -153 65 -25 27 -33 123 -16 177 7 22 26 54 43 72 22 23 27 32 15 32 -29 0 -76 -66 -84 -116 -22 -148 28 -225 165 -255 62 -13 104 -2 194 50 57 34 69 38 74 25 3 -9 3 -120 0 -248 -7 -269 -18 -331 -68 -383 -51 -53 -119 -83 -105 -47 3 8 1 25 -5 36 -10 18 -8 24 7 35 63 45 67 57 25 81 l-29 16 39 49 c21 27 44 67 51 88 22 74 -24 163 -102 195 -49 21 -132 20 -170 -2 -44 -26 -76 -103 -50 -119 6 -4 10 5 10 20 0 17 12 39 34 61 29 29 41 34 83 34 73 0 132 -34 161 -93 30 -58 24 -90 -27 -155 -34 -42 -135 -111 -147 -99 -2 2 18 33 46 67 43 54 51 69 48 99 -3 31 -6 36 -28 35 -14 -1 -35 -5 -47 -9 -21 -7 -22 -5 -17 24 11 56 -36 81 -76 41 -30 -30 -25 -43 10 -25 27 14 30 14 40 -4 5 -11 10 -27 10 -35 0 -16 6 -19 50 -20 38 -1 36 -30 -6 -88 -21 -29 -39 -62 -39 -74 -1 -13 -23 -46 -49 -74 -58 -62 -76 -103 -76 -175 0 -96 52 -174 154 -228 34 -18 57 -22 131 -22 103 1 136 14 230 90 l55 45 0 -59 c0 -73 5 -88 39 -105 32 -17 64 -6 86 28 14 21 15 35 5 108 -9 68 -15 87 -36 106 -25 22 -26 22 -53 3 -18 -13 -32 -17 -42 -10 -7 5 -50 9 -94 9 -93 0 -140 -21 -151 -67 -11 -54 -13 -55 -42 -48 -40 10 -64 36 -59 62 5 26 -5 30 -23 8 -19 -22 -4 -63 30 -80 36 -19 100 -19 125 -1 19 14 19 15 2 33 -23 26 -22 28 19 52 28 17 52 21 115 21 43 0 79 -4 79 -9 0 -19 -114 -114 -167 -138 -67 -31 -166 -35 -226 -9 -87 38 -156 130 -157 209 0 114 112 227 227 227 44 0 67 -16 36 -26 -76 -22 -124 -74 -69 -74 14 0 26 -4 26 -9 0 -20 -46 -64 -88 -84 -54 -26 -72 -49 -56 -75 14 -21 35 -26 80 -17 43 8 35 25 -12 25 -46 0 -43 20 8 48 38 21 43 21 59 6 17 -15 52 -17 304 -16 306 2 331 6 321 47 -6 22 -4 23 24 15 33 -10 69 -2 116 26 30 17 33 17 48 1 20 -20 32 -21 75 -6 29 10 35 9 60 -15 17 -17 38 -26 58 -26 24 0 37 -8 53 -30 15 -22 30 -30 51 -30 32 0 37 -11 15 -29 -20 -17 -40 -106 -32 -144 7 -37 42 -77 67 -77 10 0 27 12 38 26 27 34 30 147 5 182 -13 19 -13 26 -3 38 7 8 22 14 33 12 17 -2 21 -10 21 -38 2 -96 44 -191 99 -220 27 -14 29 -13 53 15 20 25 23 37 18 70 -3 22 -17 59 -30 81 -25 42 -78 94 -97 94 -5 0 -7 12 -3 30 5 21 0 41 -16 69 -33 58 -84 75 -155 49 -31 -11 -34 -9 -86 36 -137 121 -301 139 -432 48 -57 -39 -65 -56 -44 -92 21 -38 10 -39 -24 -2 -32 34 -44 58 -74 145 -23 69 -24 78 -24 413 0 329 1 344 19 354 24 13 153 13 385 0 156 -9 184 -13 219 -33 22 -12 47 -33 56 -46 16 -24 15 -24 -14 -17 -17 4 -39 16 -51 27 -11 10 -28 19 -36 19 -22 0 -75 -66 -89 -110 -6 -19 -21 -51 -33 -70 -40 -66 -33 -382 10 -470 24 -48 54 -90 64 -90 5 0 -2 17 -16 37 -47 69 -58 132 -57 315 0 152 2 169 21 193 11 14 24 40 27 56 9 41 62 119 81 119 30 0 24 -30 -15 -80 -23 -29 -41 -62 -41 -73 l1 -22 18 22 c10 12 37 43 60 69 l41 47 30 -28 c34 -33 31 -45 -14 -45 -46 0 -138 -97 -160 -169 -26 -89 -30 -188 -11 -282 16 -80 54 -166 63 -141 2 7 15 -1 29 -18 16 -19 34 -30 51 -30 14 0 33 -7 43 -16 9 -8 36 -17 60 -19 66 -5 110 37 143 136 28 85 33 117 42 249 6 81 3 107 -16 175 -12 44 -35 105 -51 135 -31 59 -34 76 -19 100 14 23 86 -139 106 -239 12 -62 15 -115 11 -205 -5 -128 -19 -182 -72 -271 -27 -47 -22 -61 7 -21 31 43 54 91 72 153 16 52 18 84 13 210 -5 153 -17 209 -62 310 -13 28 -34 58 -47 67 -20 14 -24 14 -37 1 -19 -18 -18 -78 2 -108 8 -12 27 -56 42 -97 29 -78 39 -200 22 -264 l-8 -29 -29 34 c-17 20 -29 46 -30 62 0 35 -47 137 -63 138 -7 1 -18 1 -26 -1 -7 -1 -24 9 -38 22 -22 21 -26 21 -51 8 -40 -22 -85 -115 -78 -164 3 -29 0 -46 -14 -63 -10 -13 -21 -46 -25 -74 -12 -87 -29 -42 -29 74 1 133 24 195 97 266 29 28 61 51 73 51 25 0 44 18 44 42 0 11 7 18 20 18 36 0 47 49 49 205 2 199 -14 229 -89 165 -19 -17 -39 -30 -45 -30 -7 0 -19 31 -28 69 -16 67 -16 71 3 113 10 23 25 51 33 61 19 23 159 63 238 66 41 2 25 69 -27 110 -87 69 -224 11 -273 -115 -11 -31 -21 -64 -21 -74 0 -29 -18 -33 -31 -8 -28 53 -28 84 2 130 16 24 29 54 29 67 0 14 5 39 12 57 10 28 9 36 -5 52 -16 18 -16 20 0 34 10 9 32 23 48 31 l30 16 -32 1 c-20 0 -43 -10 -65 -27 -66 -55 -70 -78 -12 -67 42 8 45 -8 9 -42 -22 -20 -24 -26 -13 -49 10 -23 8 -29 -22 -60 -29 -30 -32 -39 -28 -73 7 -52 57 -161 78 -172 10 -5 20 -24 23 -42 3 -18 8 -43 12 -55 7 -21 4 -23 -24 -23 -21 0 -46 11 -70 31 -46 36 -145 69 -210 69 -54 0 -144 -28 -207 -65 -48 -28 -54 -30 -54 -14 0 43 189 119 294 119 25 0 46 4 46 9 0 14 -87 51 -136 58 -29 4 -50 13 -59 26 -13 18 -18 19 -52 9 -43 -13 -85 1 -91 31 -3 14 4 17 42 17 87 0 237 -64 322 -136 49 -43 74 -54 74 -35 0 15 -72 73 -141 114 -62 36 -229 97 -269 97 -30 0 -36 21 -10 42 31 25 70 23 110 -7 19 -14 40 -25 47 -25 39 0 144 -70 216 -144 42 -44 77 -76 77 -71 0 5 -20 50 -45 100 -53 106 -67 175 -53 260 11 69 27 99 66 119 41 21 133 36 154 25 12 -7 18 -6 18 1 0 17 -52 32 -90 25 -19 -4 -59 -17 -89 -31 l-54 -24 7 31 c7 37 -8 69 -33 69 -23 0 -51 -31 -51 -57 0 -32 -8 -32 -58 -5 -33 18 -61 26 -99 26 -86 1 -110 -44 -43 -82 16 -9 30 -25 30 -34 0 -10 9 -23 20 -30 12 -8 20 -24 20 -41 0 -22 13 -42 50 -78 46 -45 61 -69 43 -69 -5 0 -44 18 -88 40 -87 43 -122 49 -160 24 -21 -13 -25 -24 -23 -58 1 -22 -1 -48 -6 -57 -4 -10 0 -25 12 -39 16 -19 30 -24 73 -26 55 -1 150 -33 150 -50 0 -5 -21 -14 -48 -20 -97 -22 -189 -83 -181 -121 5 -28 31 -27 100 5 89 41 150 56 195 47 64 -12 126 -36 172 -68 39 -27 42 -31 25 -38 -10 -4 -130 -8 -266 -8 -233 -1 -248 0 -257 18 -7 12 -11 152 -11 367 -1 323 0 350 17 362 14 10 90 12 348 11 278 -1 344 -4 420 -20 119 -24 190 -52 272 -105 64 -43 108 -62 119 -52 7 7 -145 104 -208 133 -29 13 -94 34 -143 46 -84 21 -114 22 -456 23 -305 1 -369 -1 -383 -13 -16 -14 -17 -43 -14 -391 2 -281 6 -381 15 -392 11 -13 55 -14 300 -11 333 4 366 9 428 73 21 22 42 40 45 40 3 0 4 -85 2 -190 -2 -104 -6 -190 -10 -190 -4 0 -16 16 -27 36 -25 47 -76 90 -122 104 -48 14 -539 33 -590 22 l-38 -8 -3 -354 -2 -354 26 -80 c40 -123 67 -169 120 -205 26 -17 51 -31 56 -31 4 0 8 -3 8 -7 0 -10 -607 -9 -616 0 -4 4 3 7 15 7 67 0 158 80 179 157 21 79 31 380 31 913 0 574 -5 673 -42 754 -30 66 -106 150 -160 178 -49 25 -40 10 38 -63 70 -66 116 -147 123 -220 2 -27 1 -49 -3 -49 -4 0 -26 14 -50 31 -30 22 -49 29 -64 24 -17 -5 -23 -1 -31 20 -5 14 -10 39 -10 54 0 15 -15 49 -35 76 -19 27 -37 61 -40 76 -3 15 -15 35 -26 45 -39 35 -28 49 93 122 49 30 49 44 1 26 -21 -7 -46 -13 -55 -14 -21 0 -23 -11 -6 -28 9 -9 6 -12 -13 -12 -41 0 -69 -27 -69 -66 0 -20 5 -34 13 -34 24 0 37 -16 42 -55 4 -26 16 -49 35 -67 22 -21 30 -40 39 -93 5 -37 15 -73 22 -81 15 -18 39 -18 39 1 0 22 28 18 40 -6 7 -11 27 -27 46 -35 30 -12 35 -19 32 -42 -3 -23 -7 -27 -33 -24 -47 4 -168 68 -223 117 -74 66 -96 118 -96 229 -1 74 3 99 20 130 32 63 84 99 149 104 30 2 52 8 49 13 -7 12 -83 10 -114 -2z m920 -314 c0 -8 -10 -40 -21 -71 -19 -49 -21 -72 -17 -172 l4 -116 -25 33 c-14 19 -50 56 -78 84 -29 27 -53 53 -53 57 0 4 12 12 26 18 34 16 21 32 -26 32 -30 0 -38 3 -34 15 3 8 15 17 27 21 20 6 20 7 2 20 -10 8 -30 14 -44 14 -25 1 -61 20 -61 34 0 12 111 6 144 -8 18 -7 42 -26 54 -41 32 -40 52 -27 52 33 0 27 3 52 7 55 12 13 43 7 43 -8z m-930 -221 c66 -20 52 -34 -36 -34 -62 0 -103 17 -90 38 10 17 63 15 126 -4z m1365 -42 c30 -19 63 -67 53 -77 -3 -3 -17 -1 -32 5 -31 12 -70 5 -87 -16 -6 -8 -29 -14 -50 -14 -21 0 -49 -5 -62 -11 -25 -11 -67 -86 -67 -119 0 -10 -4 -22 -10 -25 -28 -17 3 120 43 190 42 75 145 107 212 67z m-1150 -62 c-3 -5 -14 -10 -23 -10 -29 0 -116 -46 -144 -76 -36 -39 -68 -111 -68 -156 0 -44 17 -51 25 -10 12 57 56 129 98 159 44 31 116 63 142 63 26 0 16 -16 -19 -28 -47 -17 -73 -47 -56 -67 17 -20 6 -45 -20 -45 -34 0 -79 -29 -86 -55 -8 -32 -1 -41 52 -65 53 -23 53 -40 2 -55 -20 -5 -40 -13 -44 -17 -11 -12 26 -48 48 -48 11 0 18 -5 16 -12 -3 -8 -27 -14 -61 -16 -168 -9 -263 166 -170 316 30 49 103 106 157 121 44 13 159 14 151 1z m964 -886 c-11 -27 -24 -67 -28 -89 -4 -25 -12 -40 -21 -40 -22 0 -24 32 -5 81 16 43 63 109 71 101 3 -2 -5 -26 -17 -53z m111 -41 c21 -56 24 -112 5 -103 -12 6 -44 160 -34 160 4 0 17 -26 29 -57z m-57 25 c3 -13 9 -45 13 -71 l7 -49 -29 4 c-34 4 -42 33 -24 97 12 46 25 53 33 19z m-92 -298 c4 -74 5 -137 3 -139 -2 -3 -11 4 -18 15 -56 76 -62 272 -8 262 15 -3 18 -23 23 -138z m95 119 c24 -27 30 -149 12 -228 -26 -110 -57 -58 -65 111 -4 79 -2 112 7 123 16 20 23 19 46 -6z m119 -21 c4 -24 2 -71 -4 -106 -11 -69 -53 -172 -70 -172 -14 0 -14 1 3 41 8 19 19 84 24 146 6 61 13 117 17 122 13 22 24 10 30 -31z m-427 -232 c55 -15 120 -53 186 -110 l38 -33 -27 -21 c-38 -30 -64 -27 -96 11 -26 31 -28 32 -60 18 -19 -7 -44 -15 -57 -18 -22 -5 -23 -3 -17 30 9 48 -8 55 -42 16 -61 -69 -114 -76 -173 -23 -39 35 -52 64 -29 64 6 0 25 10 42 22 37 26 121 57 157 58 14 0 49 -7 78 -14z m363 -138 c25 -21 51 -69 45 -84 -10 -26 -25 -15 -36 26 -15 56 -40 54 -40 -4 0 -46 -16 -69 -31 -45 -5 8 -9 29 -9 47 0 39 -17 42 -26 5 -12 -56 -13 -58 -31 -40 -22 22 -5 60 39 87 38 23 68 25 89 8z m146 -236 c23 -39 34 -105 19 -119 -9 -10 -46 28 -66 67 -14 29 -40 123 -40 147 0 15 63 -55 87 -95z m-933 -22 c4 -49 5 -94 1 -100 -3 -5 -17 -10 -30 -10 -33 0 -41 36 -26 117 6 35 9 68 6 73 -4 6 5 10 18 10 24 0 25 -3 31 -90z m747 59 c12 -43 9 -115 -5 -134 -12 -17 -16 -18 -31 -5 -14 12 -17 26 -13 81 3 36 8 72 12 78 11 18 30 8 37 -20z"/> <path d="M2593 2054 c-54 -27 -67 -65 -54 -155 3 -18 75 -40 113 -35 48 7 75 28 95 74 11 27 11 37 0 65 -8 17 -21 38 -30 45 -26 22 -88 25 -124 6z m108 -34 c26 -15 26 -73 -1 -100 -15 -15 -33 -20 -72 -20 -55 0 -97 15 -68 23 64 17 102 34 99 42 -4 11 -20 12 -66 1 -42 -10 -45 13 -7 43 29 23 83 28 115 11z"/> <path d="M1155 1454 c-13 -9 -30 -12 -48 -8 -18 4 -54 -2 -96 -16 -81 -26 -110 -60 -89 -105 9 -21 9 -31 0 -46 -7 -11 -12 -60 -12 -125 l0 -107 36 -33 36 -34 -26 -31 c-31 -37 -32 -43 -6 -69 19 -19 22 -19 50 -5 17 9 30 19 30 23 0 4 9 18 20 32 l19 25 41 -42 c22 -24 47 -43 55 -43 18 0 55 48 55 71 0 11 6 19 13 19 8 0 22 9 32 20 14 16 17 32 13 87 -4 55 -1 73 14 95 21 30 13 66 -24 105 l-20 22 21 30 c28 39 38 96 21 116 -7 8 -25 15 -41 15 -15 0 -31 5 -34 10 -9 14 -37 12 -60 -6z m55 -34 c0 -30 21 -35 42 -10 10 12 21 20 25 17 9 -9 -17 -65 -45 -98 -23 -28 -26 -29 -120 -28 -54 1 -110 4 -127 8 -26 5 -30 10 -30 41 0 33 2 35 42 41 23 3 48 11 57 18 12 10 22 10 51 0 33 -12 37 -12 62 13 29 29 43 28 43 -2z m-217 -167 c33 -35 63 -104 72 -164 5 -37 2 -57 -15 -95 -20 -47 -65 -104 -82 -104 -17 0 -7 30 16 45 27 18 51 68 41 84 -3 6 -22 11 -41 11 l-34 0 0 125 c0 69 4 125 8 125 5 0 20 -12 35 -27z m257 -15 c46 -69 26 -83 -54 -37 -31 17 -55 34 -52 36 5 5 60 20 81 22 6 1 17 -9 25 -21z m-153 -6 c10 -10 38 -33 63 -52 66 -49 92 -85 97 -135 5 -36 2 -45 -14 -54 -20 -10 -33 -6 -33 11 0 5 4 7 9 4 13 -9 34 21 27 39 -10 28 -37 30 -57 4 -10 -13 -20 -22 -22 -19 -23 24 -57 87 -57 104 0 12 -11 39 -25 61 -13 22 -25 43 -25 48 0 13 19 7 37 -11z m64 -238 c25 -42 30 -67 18 -84 -8 -13 -14 -9 -39 20 -17 19 -30 46 -30 60 0 50 25 51 51 4z"/> <path d="M1875 806 c-22 -9 -49 -27 -60 -41 -12 -14 -27 -25 -34 -25 -15 0 -61 -45 -61 -59 0 -18 29 -32 54 -25 34 8 88 -11 116 -41 19 -21 30 -24 56 -19 29 5 34 3 39 -19 4 -15 0 -37 -9 -55 -23 -44 -20 -62 16 -111 27 -37 35 -42 60 -37 35 7 36 -7 2 -51 -31 -41 -13 -44 27 -4 23 23 29 39 29 70 0 48 -15 53 -50 16 -25 -27 -40 -25 -40 5 0 11 -9 24 -20 30 -25 14 -25 31 0 72 25 42 25 69 -1 102 -25 32 -55 34 -63 4 -6 -22 -6 -22 -24 7 -28 45 -62 59 -127 52 -63 -6 -71 3 -21 27 93 44 195 44 276 0 96 -52 140 -128 140 -243 0 -48 -5 -66 -31 -104 -17 -25 -47 -56 -66 -69 -20 -12 -31 -24 -25 -26 23 -7 85 42 119 95 34 54 34 56 28 131 l-7 77 28 -27 c25 -24 26 -30 16 -53 -25 -54 -10 -150 30 -192 47 -50 108 -11 108 70 0 51 1 52 32 36 14 -8 18 -17 14 -33 -7 -27 13 -48 67 -71 43 -18 88 -19 175 -4 52 9 61 14 47 22 -12 6 -39 6 -85 -3 -58 -11 -73 -10 -117 4 -28 9 -59 23 -69 31 -17 13 -9 14 71 15 50 1 107 2 127 3 25 1 48 -7 68 -21 16 -13 30 -18 30 -13 0 19 -43 51 -77 57 -18 3 -33 9 -33 11 0 3 17 22 38 42 56 55 75 101 70 176 -5 83 -38 133 -109 169 -74 36 -146 36 -180 -1 l-24 -26 25 16 c70 47 210 -7 251 -97 25 -55 24 -102 -3 -156 -45 -87 -133 -130 -225 -109 -78 17 -131 55 -259 185 -154 157 -196 180 -318 171 l-81 -5 35 16 c23 11 59 16 106 16 81 -2 154 -32 214 -88 43 -41 71 -56 105 -56 22 0 29 -8 47 -50 18 -43 24 -50 49 -50 15 0 31 5 34 10 11 18 40 11 50 -12 6 -13 20 -27 32 -33 13 -5 23 -20 25 -35 3 -21 8 -25 38 -25 31 0 35 3 38 28 4 32 -21 67 -47 67 -9 0 -23 5 -31 10 -13 9 -13 12 3 21 23 13 22 40 -3 72 -26 32 -25 37 4 37 27 0 42 26 25 46 -15 18 -69 28 -82 15 -7 -7 -7 -11 -1 -11 6 0 18 -6 28 -13 16 -12 17 -16 5 -34 -10 -17 -10 -27 -1 -48 16 -35 5 -79 -17 -68 -9 4 -38 7 -64 8 -45 0 -49 2 -70 40 -17 30 -31 42 -65 51 -23 7 -63 31 -89 53 -27 22 -68 49 -93 60 -63 28 -164 35 -215 17z m434 -352 c42 -54 52 -127 19 -148 -26 -16 -46 10 -58 77 -11 57 -7 97 10 97 5 0 18 -12 29 -26z"/> <path d="M972 488 c-18 -18 -14 -77 9 -125 24 -49 83 -95 144 -112 109 -30 211 5 163 56 -14 15 -19 29 -14 46 9 37 -13 49 -72 41 -44 -6 -51 -4 -66 17 -9 13 -16 32 -16 42 0 22 -24 18 -28 -4 -4 -21 40 -83 63 -87 10 -2 36 2 57 9 43 14 63 5 34 -16 -25 -19 -14 -43 25 -57 21 -7 27 -14 20 -21 -15 -15 -141 -12 -181 5 -78 33 -130 100 -130 168 l0 30 66 0 c41 0 63 4 59 10 -9 14 -119 12 -133 -2z"/> <path d="M1412 445 c-11 -13 -25 -45 -31 -71 -10 -39 -9 -51 6 -82 21 -43 54 -53 84 -26 16 14 19 31 19 95 0 42 -3 84 -6 93 -9 24 -50 19 -72 -9z m48 -16 c-8 -14 -11 -46 -7 -86 5 -65 -3 -84 -28 -63 -28 24 -15 122 22 163 21 22 28 15 13 -14z"/> </g> </svg> 