 <svg  version="1.0" xmlns="http://www.w3.org/2000/svg"  width="300.000000pt" height="44.000000pt" viewBox="0 0 300.000000 44.000000"  preserveAspectRatio="xMidYMid meet">  <g transform="translate(0.000000,44.000000) scale(0.100000,-0.100000)" fill="#7423d7" stroke="none"> <path d="M88 279 c17 -18 15 -81 -3 -105 -22 -29 -18 -34 20 -34 35 0 43 8 26 26 -5 5 -12 20 -16 33 -7 22 -5 24 24 18 27 -6 31 -4 31 14 0 13 -5 19 -12 16 -48 -19 -48 -19 -48 2 0 17 6 21 33 21 18 0 39 -6 46 -12 10 -11 12 -9 9 7 -3 17 -12 20 -63 23 -48 2 -58 1 -47 -9z"/> <path d="M260 270 c-28 -28 -26 -75 5 -105 30 -31 40 -31 70 0 31 30 32 73 5 103 -26 27 -54 28 -80 2z m75 -24 c25 -37 10 -58 -39 -54 -47 3 -59 27 -30 59 23 26 50 24 69 -5z"/> <path d="M408 277 c6 -7 12 -36 13 -65 3 -61 15 -75 61 -70 33 3 33 4 36 58 2 32 10 62 19 72 15 17 14 18 -23 18 -31 -1 -36 -3 -21 -11 12 -7 17 -22 17 -50 l0 -40 -37 3 c-37 3 -38 4 -35 38 2 19 9 41 14 48 8 9 3 12 -22 12 -25 0 -30 -3 -22 -13z"/> <path d="M614 268 c21 -29 20 -46 -3 -91 l-18 -36 74 0 c69 0 74 2 61 17 -35 45 -38 59 -15 75 18 12 20 19 11 34 -8 13 -26 19 -68 21 l-58 3 16 -23z m83 -3 c3 -9 -2 -24 -11 -34 -9 -10 -16 -33 -16 -51 0 -24 -3 -31 -11 -23 -13 13 -24 86 -16 108 8 20 46 20 54 0z"/> <path d="M870 272 c0 -19 30 -51 65 -70 19 -10 19 -11 2 -18 -10 -3 -30 -1 -44 5 -31 14 -33 13 -26 -22 5 -26 8 -28 52 -25 39 3 46 6 49 25 3 17 -8 30 -42 54 -25 18 -43 36 -40 41 8 12 58 10 72 -4 15 -15 24 -6 16 16 -4 12 -19 16 -55 16 -41 0 -49 -3 -49 -18z"/> <path d="M1025 218 l0 -73 33 -3 c36 -4 57 8 65 37 4 16 -1 18 -39 13 -37 -4 -44 -2 -44 13 0 13 6 16 25 13 19 -4 25 -1 25 13 0 16 -4 17 -25 9 -21 -8 -25 -7 -25 10 0 16 7 20 33 20 18 0 39 -6 46 -12 10 -11 12 -9 9 7 -3 16 -12 21 -53 23 l-50 3 0 -73z"/> <path d="M1210 270 c11 -21 -11 -102 -30 -108 -22 -8 -9 -22 20 -22 31 0 33 5 30 53 -1 23 2 27 24 27 23 0 25 -3 23 -37 -2 -36 0 -38 31 -41 l34 -3 -24 31 c-16 22 -23 45 -23 76 l0 44 -48 0 c-44 0 -47 -1 -37 -20z m68 -23 c3 -13 -3 -17 -28 -17 -28 0 -30 2 -20 21 13 24 43 22 48 -4z"/> <path d="M1383 273 c-6 -16 6 -30 58 -64 33 -23 17 -35 -27 -21 -35 10 -35 10 -32 -16 2 -21 9 -28 32 -30 85 -10 101 30 31 78 -25 17 -45 35 -45 40 0 14 64 12 78 -2 9 -9 12 -7 12 10 0 20 -5 22 -50 22 -38 0 -52 -4 -57 -17z"/> <path d="M1551 264 c-25 -32 -26 -46 -6 -84 28 -53 83 -48 104 10 26 76 -51 134 -98 74z m73 -7 c11 -8 17 -23 14 -38 -3 -21 -8 -24 -43 -24 -35 0 -40 3 -43 24 -4 24 19 51 43 51 6 0 19 -6 29 -13z"/> <path d="M1713 279 c21 -13 23 -77 2 -105 -22 -29 -18 -34 20 -34 40 0 40 -1 20 36 -16 32 -20 84 -6 84 4 0 16 -25 26 -55 18 -59 30 -74 47 -57 8 8 7 24 0 54 -9 35 -8 47 4 65 14 22 13 23 -17 23 -24 0 -29 -3 -22 -12 14 -18 22 -68 11 -68 -5 0 -17 18 -25 40 -14 35 -20 40 -47 40 -26 -1 -28 -2 -13 -11z"/> <path d="M1894 275 c-8 -19 10 -42 49 -62 22 -11 26 -18 18 -26 -8 -8 -19 -8 -42 0 -29 11 -30 11 -27 -15 3 -24 8 -27 44 -30 75 -5 82 37 13 82 -21 15 -39 31 -39 36 0 14 64 12 79 -2 10 -11 12 -9 9 7 -2 16 -12 21 -51 23 -36 2 -49 -1 -53 -13z"/> <path d="M2132 268 c2 -12 19 -33 38 -46 19 -13 37 -27 38 -33 5 -12 -35 -11 -59 2 -19 9 -20 8 -17 -18 3 -25 8 -28 41 -31 40 -3 67 11 67 34 0 7 -20 27 -45 44 -25 17 -45 35 -45 40 0 14 64 12 79 -2 10 -11 12 -9 9 7 -3 17 -12 21 -56 23 -51 3 -53 2 -50 -20z"/> <path d="M2287 283 c-15 -14 -6 -23 23 -23 28 0 30 -2 30 -38 0 -21 -7 -48 -16 -60 -15 -22 -14 -22 26 -22 40 0 40 0 26 23 -8 12 -16 38 -18 57 -3 33 -1 35 29 38 23 2 30 7 26 18 -4 10 -22 14 -62 14 -32 0 -61 -3 -64 -7z"/> <path d="M2496 254 c33 -35 34 -36 19 -71 -19 -46 -21 -43 20 -43 l35 0 -17 35 c-14 30 -15 38 -3 61 8 14 26 32 40 39 25 14 25 14 -13 15 -23 0 -36 -4 -32 -10 3 -6 3 -20 -1 -32 -6 -20 -7 -21 -20 -4 -7 10 -10 24 -7 32 4 10 -3 14 -25 14 l-29 0 33 -36z"/> <path d="M2663 272 c11 -12 17 -36 17 -70 0 -48 2 -52 27 -58 30 -8 53 3 64 33 7 19 5 20 -37 15 l-44 -5 0 41 c0 29 5 44 18 51 14 8 9 10 -22 11 -37 0 -38 -1 -23 -18z"/> <path d="M2823 218 l2 -73 33 -3 c37 -4 62 12 62 37 0 13 -8 16 -40 13 -33 -3 -40 -1 -40 13 0 13 6 16 25 11 20 -5 25 -3 25 14 0 17 -4 18 -25 10 -22 -8 -25 -7 -25 11 0 19 5 21 40 17 28 -2 40 0 40 9 0 9 -16 13 -49 13 l-49 0 1 -72z"/> <path d="M800 248 c0 -9 -6 -19 -12 -22 -10 -5 -10 -7 0 -12 6 -3 12 -13 12 -22 0 -13 4 -11 16 6 14 20 14 24 0 44 -12 17 -16 19 -16 6z"/> <path d="M2052 234 c-11 -12 -11 -17 1 -29 13 -13 17 -13 28 1 10 12 10 18 -2 29 -12 11 -16 11 -27 -1z"/> </g> </svg> 